<svg xmlns="http://www.w3.org/2000/svg" viewBox="0 0 1080 1920" width="1080" height="1920">
  <defs>
    <linearGradient id="greenGrad" x1="0%" y1="0%" x2="100%" y2="0%">
      <stop offset="0%" style="stop-color:#16a34a"/>
      <stop offset="100%" style="stop-color:#22c55e"/>
    </linearGradient>
    <linearGradient id="bgGrad" x1="0%" y1="0%" x2="0%" y2="100%">
      <stop offset="0%" style="stop-color:#0f1629"/>
      <stop offset="100%" style="stop-color:#0a0e1a"/>
    </linearGradient>
    <linearGradient id="winGrad" x1="0%" y1="0%" x2="0%" y2="100%">
      <stop offset="0%" style="stop-color:#16a34a" stop-opacity="0"/>
      <stop offset="50%" style="stop-color:#16a34a" stop-opacity="0.12"/>
      <stop offset="100%" style="stop-color:#16a34a" stop-opacity="0"/>
    </linearGradient>
    <filter id="shadow">
      <feDropShadow dx="0" dy="2" stdDeviation="4" flood-color="#000" flood-opacity="0.3"/>
    </filter>
    <filter id="glowGreen">
      <feGaussianBlur stdDeviation="6" result="blur"/>
      <feMerge>
        <feMergeNode in="blur"/>
        <feMergeNode in="SourceGraphic"/>
      </feMerge>
    </filter>
    <filter id="bigGlow">
      <feGaussianBlur stdDeviation="20" result="blur"/>
      <feMerge>
        <feMergeNode in="blur"/>
        <feMergeNode in="SourceGraphic"/>
      </feMerge>
    </filter>
  </defs>

  <!-- Background -->
  <rect width="1080" height="1920" fill="url(#bgGrad)"/>

  <!-- Status bar -->
  <rect width="1080" height="44" fill="#0a0e1a" opacity="0.8"/>
  <text x="50" y="32" fill="#94a3b8" font-family="system-ui, sans-serif" font-size="24" font-weight="500">9:41</text>
  <text x="1030" y="32" fill="#94a3b8" font-family="system-ui, sans-serif" font-size="24" font-weight="500" text-anchor="end">100%</text>

  <!-- Top App Bar -->
  <rect y="44" width="1080" height="100" fill="#111827" opacity="0.95"/>
  <rect y="143" width="1080" height="1" fill="#1e293b" opacity="0.5"/>

  <!-- Back arrow -->
  <text x="50" y="108" fill="#94a3b8" font-family="system-ui, sans-serif" font-size="36">&#x2190;</text>

  <!-- App Title -->
  <text x="540" y="110" fill="url(#greenGrad)" font-family="system-ui, sans-serif" font-size="42" font-weight="800" text-anchor="middle" letter-spacing="1">Kelime Fethi</text>

  <!-- Streak and Score -->
  <rect x="920" y="64" width="120" height="52" rx="26" fill="#1e293b"/>
  <text x="980" y="98" fill="#fbbf24" font-family="system-ui, sans-serif" font-size="28" text-anchor="middle" font-weight="700">1250</text>
  <text x="932" y="99" font-size="22">&#x2B50;</text>

  <!-- City Header Section -->
  <rect x="40" y="170" width="1000" height="130" rx="20" fill="#111827" filter="url(#shadow)"/>
  <rect x="40" y="170" width="1000" height="130" rx="20" fill="none" stroke="#1e293b" stroke-width="1"/>

  <!-- City Name -->
  <text x="540" y="235" fill="#f1f5f9" font-family="system-ui, sans-serif" font-size="52" font-weight="800" text-anchor="middle" letter-spacing="3">Istanbul</text>

  <!-- Region Tag -->
  <rect x="440" y="252" width="200" height="36" rx="18" fill="#3b82f6" opacity="0.15"/>
  <text x="540" y="278" fill="#60a5fa" font-family="system-ui, sans-serif" font-size="22" font-weight="700" text-anchor="middle" letter-spacing="4">MARMARA</text>

  <!-- Guess Grid - 6 rows x 5 cols -->
  <!-- Grid container -->
  <g transform="translate(140, 340)">
    <!-- Row 1: BOGAZ - green, gray, green, gray, gray -->
    <g transform="translate(0, 0)">
      <!-- B - green (correct) -->
      <rect x="0" y="0" width="148" height="148" rx="12" fill="#16a34a"/>
      <text x="74" y="100" fill="#fff" font-family="system-ui, sans-serif" font-size="72" font-weight="800" text-anchor="middle">B</text>

      <!-- O - gray (absent) -->
      <rect x="162" y="0" width="148" height="148" rx="12" fill="#374151"/>
      <text x="236" y="100" fill="#9ca3af" font-family="system-ui, sans-serif" font-size="72" font-weight="800" text-anchor="middle">O</text>

      <!-- G - green (correct) -->
      <rect x="324" y="0" width="148" height="148" rx="12" fill="#16a34a"/>
      <text x="398" y="100" fill="#fff" font-family="system-ui, sans-serif" font-size="72" font-weight="800" text-anchor="middle">G</text>

      <!-- A - gray (absent) -->
      <rect x="486" y="0" width="148" height="148" rx="12" fill="#374151"/>
      <text x="560" y="100" fill="#9ca3af" font-family="system-ui, sans-serif" font-size="72" font-weight="800" text-anchor="middle">A</text>

      <!-- Z - gray (absent) -->
      <rect x="648" y="0" width="148" height="148" rx="12" fill="#374151"/>
      <text x="722" y="100" fill="#9ca3af" font-family="system-ui, sans-serif" font-size="72" font-weight="800" text-anchor="middle">Z</text>
    </g>

    <!-- Row 2: VAPUR - all gray -->
    <g transform="translate(0, 162)">
      <rect x="0" y="0" width="148" height="148" rx="12" fill="#374151"/>
      <text x="74" y="100" fill="#9ca3af" font-family="system-ui, sans-serif" font-size="72" font-weight="800" text-anchor="middle">V</text>

      <rect x="162" y="0" width="148" height="148" rx="12" fill="#374151"/>
      <text x="236" y="100" fill="#9ca3af" font-family="system-ui, sans-serif" font-size="72" font-weight="800" text-anchor="middle">A</text>

      <rect x="324" y="0" width="148" height="148" rx="12" fill="#eab308" opacity="0.85"/>
      <text x="398" y="100" fill="#fff" font-family="system-ui, sans-serif" font-size="72" font-weight="800" text-anchor="middle">P</text>

      <rect x="486" y="0" width="148" height="148" rx="12" fill="#374151"/>
      <text x="560" y="100" fill="#9ca3af" font-family="system-ui, sans-serif" font-size="72" font-weight="800" text-anchor="middle">U</text>

      <rect x="648" y="0" width="148" height="148" rx="12" fill="#eab308" opacity="0.85"/>
      <text x="722" y="100" fill="#fff" font-family="system-ui, sans-serif" font-size="72" font-weight="800" text-anchor="middle">R</text>
    </g>

    <!-- Row 3: KOPRU - ALL GREEN (winning!) -->
    <g transform="translate(0, 324)" filter="url(#glowGreen)">
      <rect x="0" y="0" width="148" height="148" rx="12" fill="#16a34a"/>
      <text x="74" y="100" fill="#fff" font-family="system-ui, sans-serif" font-size="72" font-weight="800" text-anchor="middle">K</text>

      <rect x="162" y="0" width="148" height="148" rx="12" fill="#16a34a"/>
      <text x="236" y="100" fill="#fff" font-family="system-ui, sans-serif" font-size="72" font-weight="800" text-anchor="middle">O</text>

      <rect x="324" y="0" width="148" height="148" rx="12" fill="#16a34a"/>
      <text x="398" y="100" fill="#fff" font-family="system-ui, sans-serif" font-size="72" font-weight="800" text-anchor="middle">P</text>

      <rect x="486" y="0" width="148" height="148" rx="12" fill="#16a34a"/>
      <text x="560" y="100" fill="#fff" font-family="system-ui, sans-serif" font-size="72" font-weight="800" text-anchor="middle">R</text>

      <rect x="648" y="0" width="148" height="148" rx="12" fill="#16a34a"/>
      <text x="722" y="100" fill="#fff" font-family="system-ui, sans-serif" font-size="72" font-weight="800" text-anchor="middle">U</text>
    </g>

    <!-- Row 4: empty -->
    <g transform="translate(0, 486)">
      <rect x="0" y="0" width="148" height="148" rx="12" fill="none" stroke="#374151" stroke-width="2"/>
      <rect x="162" y="0" width="148" height="148" rx="12" fill="none" stroke="#374151" stroke-width="2"/>
      <rect x="324" y="0" width="148" height="148" rx="12" fill="none" stroke="#374151" stroke-width="2"/>
      <rect x="486" y="0" width="148" height="148" rx="12" fill="none" stroke="#374151" stroke-width="2"/>
      <rect x="648" y="0" width="148" height="148" rx="12" fill="none" stroke="#374151" stroke-width="2"/>
    </g>

    <!-- Row 5: empty -->
    <g transform="translate(0, 648)">
      <rect x="0" y="0" width="148" height="148" rx="12" fill="none" stroke="#374151" stroke-width="2"/>
      <rect x="162" y="0" width="148" height="148" rx="12" fill="none" stroke="#374151" stroke-width="2"/>
      <rect x="324" y="0" width="148" height="148" rx="12" fill="none" stroke="#374151" stroke-width="2"/>
      <rect x="486" y="0" width="148" height="148" rx="12" fill="none" stroke="#374151" stroke-width="2"/>
      <rect x="648" y="0" width="148" height="148" rx="12" fill="none" stroke="#374151" stroke-width="2"/>
    </g>

    <!-- Row 6: empty -->
    <g transform="translate(0, 810)">
      <rect x="0" y="0" width="148" height="148" rx="12" fill="none" stroke="#374151" stroke-width="2"/>
      <rect x="162" y="0" width="148" height="148" rx="12" fill="none" stroke="#374151" stroke-width="2"/>
      <rect x="324" y="0" width="148" height="148" rx="12" fill="none" stroke="#374151" stroke-width="2"/>
      <rect x="486" y="0" width="148" height="148" rx="12" fill="none" stroke="#374151" stroke-width="2"/>
      <rect x="648" y="0" width="148" height="148" rx="12" fill="none" stroke="#374151" stroke-width="2"/>
    </g>
  </g>

  <!-- Virtual Keyboard -->
  <g transform="translate(40, 1340)">
    <!-- Keyboard background -->
    <rect x="-10" y="-10" width="1020" height="440" rx="16" fill="#111827" opacity="0.9"/>

    <!-- Row 1: E R T Y U I O P G U -->
    <g transform="translate(0, 0)">
      <!-- E - absent (dark) -->
      <rect x="0" y="0" width="90" height="68" rx="8" fill="#374151"/>
      <text x="45" y="46" fill="#d1d5db" font-family="system-ui, sans-serif" font-size="32" font-weight="700" text-anchor="middle">E</text>

      <!-- R - yellow (present) -->
      <rect x="100" y="0" width="90" height="68" rx="8" fill="#eab308"/>
      <text x="145" y="46" fill="#fff" font-family="system-ui, sans-serif" font-size="32" font-weight="700" text-anchor="middle">R</text>

      <!-- T -->
      <rect x="200" y="0" width="90" height="68" rx="8" fill="#1e293b"/>
      <text x="245" y="46" fill="#d1d5db" font-family="system-ui, sans-serif" font-size="32" font-weight="700" text-anchor="middle">T</text>

      <!-- Y -->
      <rect x="300" y="0" width="90" height="68" rx="8" fill="#1e293b"/>
      <text x="345" y="46" fill="#d1d5db" font-family="system-ui, sans-serif" font-size="32" font-weight="700" text-anchor="middle">Y</text>

      <!-- U - absent -->
      <rect x="400" y="0" width="90" height="68" rx="8" fill="#374151"/>
      <text x="445" y="46" fill="#6b7280" font-family="system-ui, sans-serif" font-size="32" font-weight="700" text-anchor="middle">U</text>

      <!-- I -->
      <rect x="500" y="0" width="90" height="68" rx="8" fill="#1e293b"/>
      <text x="545" y="46" fill="#d1d5db" font-family="system-ui, sans-serif" font-size="32" font-weight="700" text-anchor="middle">I</text>

      <!-- O - green (correct) -->
      <rect x="600" y="0" width="90" height="68" rx="8" fill="#16a34a"/>
      <text x="645" y="46" fill="#fff" font-family="system-ui, sans-serif" font-size="32" font-weight="700" text-anchor="middle">O</text>

      <!-- P - green (correct) -->
      <rect x="700" y="0" width="90" height="68" rx="8" fill="#16a34a"/>
      <text x="745" y="46" fill="#fff" font-family="system-ui, sans-serif" font-size="32" font-weight="700" text-anchor="middle">P</text>

      <!-- G - green -->
      <rect x="800" y="0" width="90" height="68" rx="8" fill="#16a34a"/>
      <text x="845" y="46" fill="#fff" font-family="system-ui, sans-serif" font-size="32" font-weight="700" text-anchor="middle">G</text>

      <!-- U with umlaut -->
      <rect x="900" y="0" width="90" height="68" rx="8" fill="#1e293b"/>
      <text x="945" y="46" fill="#d1d5db" font-family="system-ui, sans-serif" font-size="32" font-weight="700" text-anchor="middle">U</text>
    </g>

    <!-- Row 2: A S D F G H J K L S -->
    <g transform="translate(30, 82)">
      <!-- A - absent -->
      <rect x="0" y="0" width="90" height="68" rx="8" fill="#374151"/>
      <text x="45" y="46" fill="#6b7280" font-family="system-ui, sans-serif" font-size="32" font-weight="700" text-anchor="middle">A</text>

      <rect x="100" y="0" width="90" height="68" rx="8" fill="#1e293b"/>
      <text x="145" y="46" fill="#d1d5db" font-family="system-ui, sans-serif" font-size="32" font-weight="700" text-anchor="middle">S</text>

      <rect x="200" y="0" width="90" height="68" rx="8" fill="#1e293b"/>
      <text x="245" y="46" fill="#d1d5db" font-family="system-ui, sans-serif" font-size="32" font-weight="700" text-anchor="middle">D</text>

      <rect x="300" y="0" width="90" height="68" rx="8" fill="#1e293b"/>
      <text x="345" y="46" fill="#d1d5db" font-family="system-ui, sans-serif" font-size="32" font-weight="700" text-anchor="middle">F</text>

      <rect x="400" y="0" width="90" height="68" rx="8" fill="#1e293b"/>
      <text x="445" y="46" fill="#d1d5db" font-family="system-ui, sans-serif" font-size="32" font-weight="700" text-anchor="middle">H</text>

      <rect x="500" y="0" width="90" height="68" rx="8" fill="#1e293b"/>
      <text x="545" y="46" fill="#d1d5db" font-family="system-ui, sans-serif" font-size="32" font-weight="700" text-anchor="middle">J</text>

      <!-- K - green (correct) -->
      <rect x="600" y="0" width="90" height="68" rx="8" fill="#16a34a"/>
      <text x="645" y="46" fill="#fff" font-family="system-ui, sans-serif" font-size="32" font-weight="700" text-anchor="middle">K</text>

      <rect x="700" y="0" width="90" height="68" rx="8" fill="#1e293b"/>
      <text x="745" y="46" fill="#d1d5db" font-family="system-ui, sans-serif" font-size="32" font-weight="700" text-anchor="middle">L</text>

      <rect x="800" y="0" width="90" height="68" rx="8" fill="#1e293b"/>
      <text x="845" y="46" fill="#d1d5db" font-family="system-ui, sans-serif" font-size="32" font-weight="700" text-anchor="middle">S</text>
    </g>

    <!-- Row 3: ENTER Z C V B N M . BACK -->
    <g transform="translate(0, 164)">
      <!-- Enter key -->
      <rect x="0" y="0" width="130" height="68" rx="8" fill="#16a34a"/>
      <text x="65" y="46" fill="#fff" font-family="system-ui, sans-serif" font-size="22" font-weight="700" text-anchor="middle">ENTER</text>

      <!-- Z - absent -->
      <rect x="140" y="0" width="90" height="68" rx="8" fill="#374151"/>
      <text x="185" y="46" fill="#6b7280" font-family="system-ui, sans-serif" font-size="32" font-weight="700" text-anchor="middle">Z</text>

      <rect x="240" y="0" width="90" height="68" rx="8" fill="#1e293b"/>
      <text x="285" y="46" fill="#d1d5db" font-family="system-ui, sans-serif" font-size="32" font-weight="700" text-anchor="middle">C</text>

      <!-- V - absent -->
      <rect x="340" y="0" width="90" height="68" rx="8" fill="#374151"/>
      <text x="385" y="46" fill="#6b7280" font-family="system-ui, sans-serif" font-size="32" font-weight="700" text-anchor="middle">V</text>

      <!-- B - green -->
      <rect x="440" y="0" width="90" height="68" rx="8" fill="#16a34a"/>
      <text x="485" y="46" fill="#fff" font-family="system-ui, sans-serif" font-size="32" font-weight="700" text-anchor="middle">B</text>

      <rect x="540" y="0" width="90" height="68" rx="8" fill="#1e293b"/>
      <text x="585" y="46" fill="#d1d5db" font-family="system-ui, sans-serif" font-size="32" font-weight="700" text-anchor="middle">N</text>

      <rect x="640" y="0" width="90" height="68" rx="8" fill="#1e293b"/>
      <text x="685" y="46" fill="#d1d5db" font-family="system-ui, sans-serif" font-size="32" font-weight="700" text-anchor="middle">M</text>

      <rect x="740" y="0" width="90" height="68" rx="8" fill="#1e293b"/>
      <text x="785" y="46" fill="#d1d5db" font-family="system-ui, sans-serif" font-size="32" font-weight="700" text-anchor="middle">C</text>

      <!-- Backspace -->
      <rect x="840" y="0" width="160" height="68" rx="8" fill="#1e293b"/>
      <text x="920" y="46" fill="#d1d5db" font-family="system-ui, sans-serif" font-size="28" font-weight="600" text-anchor="middle">&#x232B;</text>
    </g>

    <!-- Row 4: Space bar area -->
    <g transform="translate(0, 246)">
      <rect x="0" y="0" width="90" height="68" rx="8" fill="#1e293b"/>
      <text x="45" y="46" fill="#d1d5db" font-family="system-ui, sans-serif" font-size="28" font-weight="600" text-anchor="middle">?</text>

      <rect x="100" y="0" width="800" height="68" rx="8" fill="#1e293b"/>
      <text x="500" y="46" fill="#64748b" font-family="system-ui, sans-serif" font-size="24" text-anchor="middle">Turkce</text>

      <rect x="910" y="0" width="90" height="68" rx="8" fill="#1e293b"/>
      <text x="955" y="46" fill="#d1d5db" font-family="system-ui, sans-serif" font-size="28" font-weight="600" text-anchor="middle">.</text>
    </g>
  </g>

  <!-- Win Overlay (semi-transparent) -->
  <rect width="1080" height="1920" fill="#0a0e1a" opacity="0.5"/>

  <!-- Confetti particles -->
  <g opacity="0.9">
    <!-- Green confetti -->
    <rect x="120" y="200" width="18" height="40" rx="3" fill="#22c55e" transform="rotate(25, 129, 220)" opacity="0.8"/>
    <rect x="280" y="140" width="14" height="35" rx="3" fill="#16a34a" transform="rotate(-15, 287, 157)" opacity="0.7"/>
    <rect x="750" y="180" width="16" height="38" rx="3" fill="#22c55e" transform="rotate(40, 758, 199)" opacity="0.8"/>
    <rect x="890" y="250" width="12" height="30" rx="3" fill="#4ade80" transform="rotate(-30, 896, 265)" opacity="0.6"/>
    <rect x="480" y="120" width="18" height="42" rx="3" fill="#22c55e" transform="rotate(15, 489, 141)" opacity="0.75"/>

    <!-- Gold confetti -->
    <rect x="200" y="300" width="14" height="34" rx="3" fill="#f59e0b" transform="rotate(50, 207, 317)" opacity="0.8"/>
    <rect x="400" y="180" width="16" height="36" rx="3" fill="#fbbf24" transform="rotate(-20, 408, 198)" opacity="0.7"/>
    <rect x="650" y="260" width="14" height="32" rx="3" fill="#f59e0b" transform="rotate(35, 657, 276)" opacity="0.75"/>
    <rect x="950" y="160" width="12" height="28" rx="3" fill="#fbbf24" transform="rotate(-45, 956, 174)" opacity="0.65"/>

    <!-- Blue confetti -->
    <rect x="340" y="220" width="16" height="36" rx="3" fill="#3b82f6" transform="rotate(-35, 348, 238)" opacity="0.7"/>
    <rect x="580" y="150" width="14" height="32" rx="3" fill="#60a5fa" transform="rotate(25, 587, 166)" opacity="0.65"/>
    <rect x="820" y="300" width="18" height="40" rx="3" fill="#3b82f6" transform="rotate(-10, 829, 320)" opacity="0.8"/>

    <!-- White/silver confetti -->
    <rect x="160" y="170" width="10" height="24" rx="2" fill="#e2e8f0" transform="rotate(60, 165, 182)" opacity="0.5"/>
    <rect x="700" y="130" width="12" height="28" rx="2" fill="#f1f5f9" transform="rotate(-55, 706, 144)" opacity="0.45"/>
    <rect x="500" y="280" width="10" height="22" rx="2" fill="#e2e8f0" transform="rotate(30, 505, 291)" opacity="0.5"/>

    <!-- Circle confetti -->
    <circle cx="250" cy="250" r="8" fill="#f59e0b" opacity="0.6"/>
    <circle cx="550" cy="200" r="6" fill="#22c55e" opacity="0.7"/>
    <circle cx="800" cy="220" r="7" fill="#3b82f6" opacity="0.5"/>
    <circle cx="420" cy="300" r="5" fill="#fbbf24" opacity="0.65"/>
    <circle cx="680" cy="160" r="9" fill="#4ade80" opacity="0.55"/>
    <circle cx="100" cy="280" r="6" fill="#f59e0b" opacity="0.6"/>
    <circle cx="930" cy="200" r="7" fill="#22c55e" opacity="0.5"/>
  </g>

  <!-- Win Modal -->
  <rect x="140" y="600" width="800" height="550" rx="32" fill="#111827" filter="url(#shadow)"/>
  <rect x="140" y="600" width="800" height="550" rx="32" fill="none" stroke="#22c55e" stroke-width="2" opacity="0.4"/>

  <!-- Green glow behind trophy -->
  <circle cx="540" cy="730" r="80" fill="#16a34a" opacity="0.15" filter="url(#bigGlow)"/>

  <!-- Trophy -->
  <text x="540" y="760" fill="#fbbf24" font-size="120" text-anchor="middle">&#x1F3C6;</text>

  <!-- Tebrikler text -->
  <text x="540" y="850" fill="#f1f5f9" font-family="system-ui, sans-serif" font-size="56" font-weight="800" text-anchor="middle">Tebrikler!</text>

  <!-- Score earned -->
  <rect x="370" y="880" width="340" height="60" rx="30" fill="#16a34a" opacity="0.2"/>
  <text x="540" y="922" fill="#22c55e" font-family="system-ui, sans-serif" font-size="42" font-weight="800" text-anchor="middle">+ 300 puan</text>

  <!-- Stats row -->
  <g transform="translate(200, 970)">
    <g transform="translate(0, 0)">
      <text x="60" y="30" fill="#94a3b8" font-family="system-ui, sans-serif" font-size="22" text-anchor="middle">Tahmin</text>
      <text x="60" y="70" fill="#f1f5f9" font-family="system-ui, sans-serif" font-size="40" font-weight="800" text-anchor="middle">3/6</text>
    </g>
    <g transform="translate(220, 0)">
      <text x="60" y="30" fill="#94a3b8" font-family="system-ui, sans-serif" font-size="22" text-anchor="middle">Seri</text>
      <text x="60" y="70" fill="#f59e0b" font-family="system-ui, sans-serif" font-size="40" font-weight="800" text-anchor="middle">5</text>
    </g>
    <g transform="translate(440, 0)">
      <text x="60" y="30" fill="#94a3b8" font-family="system-ui, sans-serif" font-size="22" text-anchor="middle">Sehir</text>
      <text x="60" y="70" fill="#22c55e" font-family="system-ui, sans-serif" font-size="40" font-weight="800" text-anchor="middle">13</text>
    </g>
  </g>

  <!-- Share button -->
  <rect x="290" y="1070" width="500" height="64" rx="32" fill="url(#greenGrad)"/>
  <text x="540" y="1112" fill="#fff" font-family="system-ui, sans-serif" font-size="30" font-weight="700" text-anchor="middle">Sonraki Sehir &#x2192;</text>

  <!-- Home indicator -->
  <rect x="410" y="1895" width="260" height="5" rx="2.5" fill="#475569"/>
</svg>