<?xml version="1.0" encoding="UTF-8"?>
<!DOCTYPE svg PUBLIC "-//W3C//DTD SVG 1.1//EN" "http://www.w3.org/Graphics/SVG/1.1/DTD/svg11.dtd">
<!-- Creator: CorelDRAW 2017 -->
<svg xmlns="http://www.w3.org/2000/svg" xml:space="preserve" width="111.728mm" height="89.3711mm" version="1.1" style="shape-rendering:geometricPrecision; text-rendering:geometricPrecision; image-rendering:optimizeQuality; fill-rule:evenodd; clip-rule:evenodd"
viewBox="0 0 5414.84 4331.32"
 xmlns:xlink="http://www.w3.org/1999/xlink">
 <defs>
  <style type="text/css">
   <![CDATA[
    .fil0 {fill:#FEFEFE}
    .fil2 {fill:black}
    .fil1 {fill:#23A543}
   ]]>
  </style>
 </defs>
 <g id="Katman_x0020_1">
  <metadata id="CorelCorpID_0Corel-Layer"/>
  <g id="_1869129769904">
   <path class="fil0" d="M4928.92 3771.08c32.98,-15.64 69.95,-22.78 115.38,-31.38 167.58,-31.71 340.22,50.48 365.71,230.87 26.56,188 -56.68,326.33 -249.48,354.84 -84.53,12.5 -167.58,1.14 -233.69,-35.27l-0 33.95 -246.28 -6.76 0 2.12 -95.57 1.38c-46.03,0.66 -101.8,8.52 -145.39,-10.39 -73.67,26.7 -141.39,31 -226.59,-6.22 -2.52,-1.1 -5.01,-2.24 -7.46,-3.43l0.01 18.86 -96.26 0.72c-52.72,0.4 -110.71,7.78 -154.7,-11.24 -26.86,8.82 -53.95,15.74 -85.03,18.95 -57.41,5.92 -110.67,-4.48 -154.31,-32.19l-11.51 5.95c-95.84,49.53 -243.01,36.67 -316.59,-47.4 -110.4,96.39 -318.13,88.18 -445.94,39.94l-63.31 -23.9 2.53 -278.38 36.89 3.96c-30.32,-37.15 -49.27,-82.83 -50.57,-135.84 -2.51,-102.74 63.93,-189.66 153.59,-233.59 110.2,-54 238.5,-40.94 349.91,2.05l63.41 24.46 -0.11 5.45 220.92 -57.26 2.04 140.83 226.47 -0.43 0 -1.87 322.23 6.26 0.01 28.1c46.36,-28.21 98.67,-39.57 152.41,-37.98l-0.02 -156.29 322.61 -1.18 0 0.43 247.56 -0.41 1.1 192.25zm-2819.12 -11.27l-0.51 -18.41 272.99 2.2 -0.04 -1.57 324.24 -0.39 0.15 579.6 -96.98 -0.03c-31.71,-0.01 -64.01,0.77 -95.67,-0.2 -18.13,-0.56 -35.19,-2.75 -50.83,-8.24 -97.46,35.03 -219.16,17.58 -289.8,-56.5 -22.41,22.66 -49.79,41.34 -82.54,54.64 -66.76,27.11 -141.36,24.3 -208.43,0.36 -36.06,14.41 -80.6,11.48 -120.15,10.28l0 0.37 -99.51 -0.74 -18.6 0 0 -0.14 -204.64 -1.52 0 -0.15 -242.9 2.2 0.04 -3.39 -245.5 5.03 0 -1.89c-37.45,1.44 -77.94,2.26 -111.77,-9.49 -94.15,33.55 -209.94,21.11 -283.88,-44.42 -118.21,86.83 -321.65,54 -458.2,53.73l-97.28 -0.2 4.06 -715.94 96.26 -0.13c34.52,-0.04 69.11,-1.66 103.6,-3.03 117.88,-4.72 276.61,-13.35 365.07,79.63 22.34,23.48 37.82,50.87 47.13,80.76 100.21,-35.12 236.74,-44.05 334.86,6.37l-0.01 -26.7 96.9 -0.06c30.35,-0.02 61,-0.87 91.3,-0.37 20.91,0.35 40.27,2.73 57.93,9.95 70.47,-26.83 144.71,-26.91 211.09,10.12 31.15,-11.4 61.47,-20.52 98.26,-25.2 53.99,-6.87 100.47,-0.07 138.42,17.96l-0.06 -177.27 321.19 5.32 2.62 150.65c51.92,-2.94 99.91,6.38 141.19,26.79zm1843.03 -2296.6c-2.15,-0.87 -4.21,-1.7 -6.15,-2.48 -52.88,-21.15 -106,-42.8 -158.26,-65.48l-320.27 -126.97c-101.19,-40.11 -203.43,-78.13 -305.11,-117.07 -113.31,-43.39 -234.93,-87.46 -344.36,-139.28l-55.66 -26.35 3.27 -985.59 1480.15 2.97 -0.54 1510.77 -84.41 10.97c-24.27,3.16 -63.27,-6.87 -102.72,-20.32 23.08,9.16 46.09,18.5 68.93,28.19 24.51,10.41 57.12,23.68 78.4,39.38l39.37 29.05 0.29 1851.59 -1482.42 -2.26 -1.74 -2430.25 119.06 27.8c33.7,7.87 73.48,24.46 105.99,36.93 52.79,20.25 105.35,41.2 157.86,62.19 77.5,30.98 155.41,63.72 233.55,92.86l1.48 0.57 482.5 189.06c30.32,10.9 60.61,22.21 90.8,33.72zm-2227.24 559.41l-450.54 175.86 2.81 -2198.27 1454.2 0.01 17.98 74.06c5.84,24.03 4.94,66.53 5.44,91.68 1.12,55.86 1.7,111.76 2.21,167.64 1.54,164.56 2.15,329.15 2.44,493.71 0.28,157.89 0.25,315.81 -0.7,473.7 -0.34,56.21 -0.76,112.44 -1.68,168.65 -0.49,30 -0.31,62.5 -3.05,92.33l-5.84 63.47 -60.6 19.79c-119.39,38.98 -238.02,89.01 -354.24,136.74 -95.03,39.03 -190.19,78.54 -286.53,114.25 -108.09,40.06 -213.53,86.98 -321.91,126.38zm-394.45 161.15c104.95,-51.38 217.3,-81.89 323.76,-128.78l1.85 -0.81 1100.16 -430.94 -0.5 1829.34 -1481.22 -1.69 1.73 -1240.57 54.23 -26.54z"/>
  </g>
  <g id="_1869129769680">
   <path class="fil1" d="M2860.2 3353.55l1288.62 1.97 -0.27 -1705.57c-28.45,-20.99 -270.91,-111.85 -320.61,-129.71l-483.78 -189.56c-84.91,-31.68 -434.83,-176.57 -485.56,-188.41l1.59 2211.28z"/>
   <path class="fil1" d="M1372.15 2056.51l319.27 -124.62c106.01,-38.47 216.38,-87.26 322.39,-126.55 201.66,-74.74 459.32,-191.82 644.36,-252.24 8.69,-94.53 5.36,-1424.28 -2.33,-1455.96l-1281.19 -0.01 -2.51 1959.38z"/>
   <path class="fil1" d="M1373.76 2270.82l-1.51 1083.24 1287.25 1.46 0.44 -1590.21 -965.97 378.37c-106.88,47.09 -218.9,77.54 -320.22,127.14z"/>
   <path class="fil1" d="M2860.16 924.34c124.54,58.97 483.59,189.59 643.71,253.84l321.71 127.54c44.51,19.33 299.07,126.03 323.41,122.86l0.49 -1328.88 -1286.58 -2.58 -2.75 827.21z"/>
   <path class="fil2" d="M408.08 4113.55c-46.13,23.1 -126.72,16.47 -181.52,15.83l2.13 -127.56c116.96,-2.72 220.46,-27.59 179.39,111.73zm-180.99 -316.95c70.49,-2.71 174.68,-21.55 171.56,59.67 -2.68,69.66 -99.03,52.47 -170.83,50.39l-0.73 -110.06zm-129.61 427.62c204.82,0.42 437.29,47.56 450.75,-135.4 6.05,-82.23 -17.6,-102.73 -67.85,-134.89l20.48 -25.26c7.44,-8.99 13.41,-16.46 18.13,-26.72 10.4,-22.64 13.04,-54.69 10.15,-82.98 -16.34,-160.5 -248.09,-117.39 -428.7,-117.16l-2.97 522.41z"/>
   <path class="fil2" d="M1393.92 3870.78c-66.05,-62.69 -146.28,-47.37 -215.91,-0.66 -28.01,-37.76 17.47,-31.43 -130.09,-31.35l0.11 385.5 126.24 -2.58 -0.08 -260.29c25.32,-25.09 49.9,-45.47 94.31,-32.78 38.75,22.41 26.55,78.15 26.51,130.03 -0.04,55.03 0.38,110.07 -0.3,165.09l120.54 -1.09 -0.2 -223.85c-0,-47.41 1.23,-65.52 47.77,-73.17 46.69,-7.67 69.91,6.93 73.94,50.34 6.4,69.03 0.49,174.64 0.13,247.33l128.4 0.95 0 -247.9c-0.04,-241.7 -252.13,-111.02 -271.38,-105.58z"/>
   <path class="fil2" d="M4454.92 4112.97c-229.25,139.04 -198.36,-295.2 -0.8,-164.1l0.8 164.1zm-0.31 -258.65c-315.45,-119.06 -361.03,291.96 -202.79,361.09 86.33,37.71 143.46,12 209.09,-19.35 24.29,35.89 -3.53,29.68 122.69,27.86l-0.23 -547.82 -128.78 0.47 0.03 177.75z"/>
   <path class="fil2" d="M1873.19 3946.35c172.79,-93.76 172.36,108.58 137.93,160.97 -23.24,35.36 -103.4,44.52 -131.03,11.61 -23.24,-27.68 -11.42,-130.5 -6.91,-172.58zm-131.24 269.38l-0.07 8.51c132.59,0 92.9,7.75 123.3,-28.7 117.7,75.42 289.23,45.68 292.99,-159.22 3.32,-180.74 -122.77,-249.47 -284.4,-182.04l-3.07 -176.55 -128.94 -2.14 0.18 540.14z"/>
   <path class="fil2" d="M3227.22 4112.62c-81.91,49.15 -218.83,-9.27 -250.81,-12.71l-0.95 103.81c123.92,46.77 361.34,50.32 386.55,-92.93 27.59,-156.79 -101.02,-178.91 -197.66,-207.78 -44.03,-13.15 -66.92,-19.11 -64.63,-70.58 33.62,-31.31 61.99,-30.16 119.73,-27.76 53.06,2.21 68.05,15.1 113.69,23.87l2.24 -109.41c-339.21,-130.88 -497.94,187.95 -253.32,275.36 105.04,37.53 165.43,26.75 145.15,118.12z"/>
   <path class="fil2" d="M5072.24 3935.31c140.75,-34.52 145.49,173.43 61.39,192.13 -70.72,15.72 -108.32,-9.58 -116.31,-71.03 -7.77,-59.69 5.52,-108.98 54.93,-121.1zm-9.91 -100.37c-73.1,13.83 -103.46,17.85 -138.98,65.05 -33.35,44.32 -44.27,107.91 -35.48,173.28 16.57,123.24 124.12,176.13 258.49,156.25 127.66,-18.88 188.61,-97.22 167.68,-245.39 -16.78,-118.77 -131.04,-172.02 -251.71,-149.19z"/>
   <path class="fil2" d="M852.49 4062.48c7.57,43.65 7.63,59.94 -21.4,76.5 -121.88,69.49 -189.11,-77.27 -65.53,-77.57l86.94 1.08zm-218.96 -203.25l1 81.42c63.75,-12.48 66.43,-16.33 138.5,-16.15 58.41,0.14 75.69,4.27 82.11,58.08 -104.72,9.97 -212.79,-15.96 -254.34,68.22 -78.59,159.24 131.33,229.25 247.03,149 41.99,18.47 -28.73,27.91 129.01,23.6 -0.7,-101.24 22.66,-286.87 -37.7,-345.62 -67.13,-65.34 -215.6,-54.78 -305.63,-18.55z"/>
   <path class="fil2" d="M3982.16 4196.16c15.56,33.11 -16.9,28.38 126.42,27.3l-0.22 -382.24 -128.3 -2.49 0.36 267.74c-43.77,41.74 -137.09,57.24 -144.78,-26.54 -5.67,-61.76 12.3,-192.36 -6.33,-241.13l-118.48 0.22c-12.23,57.51 -8.3,283.66 14.2,327.1 60.61,117.05 208.15,48.23 257.13,30.05z"/>
   <path class="fil2" d="M2478.62 4194.09c27.51,34.07 -22.33,30.14 131.05,30.18l-0.1 -385.59 -127.59 0.15c1.82,63.36 0.38,126.71 0.77,189.99 0.44,71.31 2.69,104.65 -72.37,109.67 -74.97,5.02 -73.99,-42.23 -73.61,-109.66 0.35,-62.67 -1.14,-126.14 0.83,-188.66l-128.63 -1.04c2.22,80.22 -13.29,270.99 18.42,328.34 44.17,79.87 184.22,84.72 251.23,26.62z"/>
   <path class="fil2" d="M3431.46 3759.31l-0.15 79.16 -52.05 1.33 -1.05 99.16 53.3 3.03c-0.56,70.71 -12.51,189.6 22.58,240.86 34.25,50.04 137.01,68.12 205.18,32.88l4.07 -79.64c-57.52,3.03 -98,13.73 -103.68,-41.12 -3.38,-32.72 -1.83,-117.43 1.07,-151.05l87.08 -3.15 5.97 -101.24 -92.81 -1.7 -1.61 -111.68 -127.9 33.15z"/>
   <path class="fil2" d="M4644.75 3932.89c26.96,0.14 35.75,-3.18 57.07,6.07l0.64 282.01 127.47 3.49 0.03 -385.44 -175.61 -0.12 -9.6 93.98z"/>
   <polygon class="fil2" points="4691.38,3777.54 4832.04,3778.85 4831.45,3675.92 4691.14,3676.15 "/>
  </g>
 </g>
</svg>
