<?xml version="1.0" encoding="UTF-8"?>
<!DOCTYPE svg PUBLIC "-//W3C//DTD SVG 1.1//EN" "http://www.w3.org/Graphics/SVG/1.1/DTD/svg11.dtd">
<!-- Creator: CorelDRAW 2017 -->
<svg xmlns="http://www.w3.org/2000/svg" xml:space="preserve" width="121.769mm" height="84.9061mm" version="1.1" style="shape-rendering:geometricPrecision; text-rendering:geometricPrecision; image-rendering:optimizeQuality; fill-rule:evenodd; clip-rule:evenodd"
viewBox="0 0 4880.08 3402.76"
 xmlns:xlink="http://www.w3.org/1999/xlink">
 <defs>
  <style type="text/css">
   <![CDATA[
    .fil0 {fill:#FEFEFE}
    .fil1 {fill:#020202}
    .fil4 {fill:#0DA7E1}
    .fil3 {fill:#0DA7E1}
    .fil2 {fill:white}
   ]]>
  </style>
 </defs>
 <g id="Katman_x0020_1">
  <metadata id="CorelCorpID_0Corel-Layer"/>
  <g id="_1869129774416">
   <path class="fil0" d="M3856.96 3327.85c-3.35,5.83 -7.54,11.33 -12.55,16.48 -15.49,15.92 -34.53,24.07 -56.74,24.26 -175.15,1.55 -312.57,-3.61 -455.42,-117.05 -140.59,-111.65 -203.72,-319.89 -193.28,-493.99 3.35,-55.93 14.08,-111.48 33.08,-164.23 86.89,-241.28 307.5,-341.21 551.98,-341.19 73.83,0.01 147.7,-1.42 221.54,-1.73 77.53,-0.33 158.33,-0.97 235.56,5.27 41.79,3.38 73.76,38.1 73.69,80.03l-1.64 949.44c-0.08,43.69 -35.29,79.36 -78.97,80.01l-245.96 3.63c-22.25,0.33 -41.52,-7.39 -57.38,-23 -5.63,-5.53 -10.28,-11.51 -13.93,-17.92zm-11.3 -671.67c-2.12,-0.05 -4.24,-0.1 -6.36,-0.14 -68.05,-1.49 -201.42,-6.63 -257,38.65 -30.71,25.02 -37.72,66.88 -38.65,104.33 -3.09,123.68 52.02,160.03 170.03,160.97l68.27 -0.3c26.24,-0.11 49.66,12.47 64.38,32l-0.67 -335.5zm-2605.63 -401.56l249.75 -1.44c22.47,-0.13 41.85,7.93 57.6,23.94 15.75,16.01 23.49,35.52 23,57.98 -3.55,160.76 -0.48,321.52 -0.85,482.3 -0.27,116.97 27.58,184.42 153.45,184.02 112.43,-0.36 148.62,-68.93 148.82,-174.14 0.32,-165.44 -1.93,-330.89 0.17,-496.32 0.55,-43.86 36.5,-79.26 80.37,-79.14l243.74 0.68c42.62,0.12 77.64,33.47 79.82,76.04 5.83,113.44 7.91,228.34 6.78,341.9 -0.73,72.99 -2.81,146.6 -8.86,219.35 -4.5,54.08 -11.45,120.66 -30.27,171.64 -167.31,453.31 -874,455.03 -1046.57,5.51 -40.02,-104.24 -41.23,-288.42 -41.64,-400.92 -0.4,-110.94 3.55,-221.44 5,-332.29 0.57,-43.62 36.07,-78.85 79.68,-79.11zm-170.1 785.55l3 245.09c0.51,41.66 -30.64,76.54 -72.09,80.73 -162.05,16.37 -549.29,19.33 -692.42,-45.24 -405.34,-182.86 -413.45,-826.33 -10.5,-1017.15 120.88,-57.25 215.69,-51.4 344.56,-51.41 117.6,-0.01 243.73,-10.2 360.05,4.28 40.33,5.02 70.21,38.82 70.25,79.46l0.23 238.9c0.04,41.95 -32,76.66 -73.82,79.98 -68.63,5.45 -138.3,3.03 -207.04,0.42 -85.32,-3.24 -280.77,-18.68 -348.69,40.89 -31.15,27.32 -37.36,72.01 -37.41,111.19 -0.06,38.89 5.29,86.31 36.14,113.91 44.32,39.66 142.48,43.17 198.5,43.94 117.4,1.61 234.11,-8.32 351.97,-4.1 42.77,1.53 76.75,36.33 77.28,79.12zm1699.96 -222.92l-0.38 467.25c-0.04,43.67 -35.19,79.37 -78.85,80.08l-243.18 3.95c-43.44,0.71 -79.6,-33.43 -81.39,-76.84 -4.51,-109.2 -7.17,-218.73 -6.04,-328.02 1.17,-113.21 4.28,-292.55 43.01,-398.14 45.78,-124.8 122.5,-223.82 244.83,-280.3 136.84,-63.17 296.48,-57.8 443.83,-56.68 43.82,0.33 79.36,36 79.54,79.81l1.02 244.6c0.09,22.17 -7.77,41.29 -23.44,56.98 -15.67,15.69 -34.77,23.58 -56.95,23.51 -68.17,-0.2 -212.24,-11.51 -269.8,26.63 -46.96,31.12 -52.18,106.94 -52.22,157.16zm552.29 -1410.72l-509.31 507.89c-15.89,16.9 -29.06,33.04 -47.32,48.24 -32.24,26.84 -69.72,43.13 -112.19,43.06l-1187.1 -1.95c-44.02,-0.07 -79.89,-35.9 -80.02,-79.92l-3.33 -1127.46c-0.3,-101.26 -11.05,-119.24 67.77,-194.98 31.97,-30.71 62.12,-63.3 93.55,-94.56l371.06 -369.15c0.23,-0.23 0.43,-0.42 0.67,-0.65 20.3,-19.74 38.82,-40.03 57.69,-61.06 17.02,-18.96 33.45,-36.32 55.63,-49.49 30.97,-18.39 63.92,-23.26 99.26,-25.08 47.68,-2.45 97.1,-1.01 144.91,-0.93l1034.45 1.86c44.08,0.08 79.99,36.03 80.01,80.12l0.49 1133.87c0.04,97.26 8.5,119.46 -66.22,190.2zm1021.25 1855.76c-2.32,-48.23 -5.05,-97.39 -4.42,-145.16 0.51,-39.25 4.23,-76.38 22.76,-111.75 17.47,-33.37 45.86,-59.37 71.51,-86.39 19.67,-20.72 35.46,-43.47 59.31,-60.02 36.21,-25.12 77.5,-28.21 120.13,-28.87 64.28,-0.99 128.94,-1.96 193.02,4.16 41.24,3.94 72.47,38.23 72.53,79.66 0.11,65.47 3.07,130.9 1.19,196.38 -2.44,85.56 -65.71,170.42 -135.36,215.65 -41.44,26.91 -88.88,43.13 -138.55,43.48 -56.71,0.39 -113.49,-0.27 -170.18,-2.34 -9.22,1.16 -18.79,0.65 -28.51,-1.58l-4.87 -1.12c-40.52,-9.31 -67.05,-47.64 -61.5,-88.83 0.62,-4.56 1.6,-8.99 2.93,-13.25z"/>
  </g>
  <g id="_1869129774256">
   <path class="fil1" d="M3714.03 3040.13c-164.98,-1.3 -254.74,-74.07 -250.51,-243.12 6.36,-254.8 252.73,-221.42 462.13,-219.4l1.43 711.01 245.96 -3.63 1.64 -949.44c-112.02,-9.06 -334.35,-3.27 -450.65,-3.28 -618.9,-0.05 -587.78,661.24 -341.93,856.49 120.95,96.06 235.25,101.18 404.85,99.67l-4.66 -248.6 -68.27 0.3z"/>
   <path class="fil2" d="M2039.94 580.48c-10.93,49.21 -125.6,111.11 -130.35,355.74 -5.75,296.4 169.05,508.16 463.34,518.97 80.43,2.95 436.79,13.96 481.06,-7.87 17.35,-15.9 10.84,-94.02 10.84,-120.88 -0.02,-43.84 0.94,-84.2 -3.15,-128.05 -82.94,-7.44 -473.04,10.31 -508.39,-10.1 -211.68,-21 -242.94,-322.95 -105.8,-428.49 98.68,-75.95 428.26,-42.06 612.85,-47.78 6.03,-52.52 9.62,-212.52 -2.78,-259.06 -156.37,-2.98 -318.16,-2.29 -474.66,-0.3 -204.62,2.59 -265.49,99.71 -342.96,127.82z"/>
   <path class="fil1" d="M1240.49 2334.78c-2.32,177.15 -20.7,567.95 31.32,703.44 146.07,380.5 754.71,379.75 896.55,-4.53 45.35,-122.87 35.68,-541.76 27.5,-701.02l-243.74 -0.68c-2.09,164.93 0.16,330.46 -0.16,495.46 -0.3,155.18 -75.24,253.64 -228.72,254.13 -168.45,0.54 -234.24,-97.28 -233.86,-264.36 0.36,-158.94 -2.74,-320.43 0.87,-483.89l-249.75 1.44z"/>
   <path class="fil1" d="M989.77 3041.15c-331.68,-11.87 -664.36,81.95 -663.89,-233.97 0.49,-328.87 389.63,-210.29 666.96,-232.28l-0.23 -238.9c-98.23,-12.23 -246.53,-3.67 -350.14,-3.66 -131.17,0.01 -206.27,-5.55 -310.26,43.7 -341.54,161.75 -333.83,716.92 9.16,871.65 118.99,53.68 488.61,55.01 651.41,38.56l-3 -245.09z"/>
   <path class="fil1" d="M2689.73 2817.19c0.02,-295.02 198.94,-264.5 402.41,-263.89l-1.02 -244.6c-247.15,-1.88 -503.25,-14.22 -612.8,284.44 -49.68,135.43 -39.59,514.77 -32.14,695.25l243.18 -3.95 0.38 -467.25z"/>
   <path class="fil3" d="M2653.49 1925.57c48.8,-0.03 79.32,-43.11 101.89,-67.02l510.95 -509.53c50.67,-47.82 41.57,-42.85 41.9,-132.65l-0.49 -1133.87 -1034.45 -1.86c-246.42,0.1 -176.36,-7.75 -301.48,113.87l-371.06 369.15c-30.1,29.54 -62.74,64.97 -94.54,95.53 -55.19,53.03 -43.43,46.08 -43.15,136.95l3.33 1127.46 1187.1 1.95zm-270.59 -1472.92c156.49,-1.98 318.29,-2.68 474.66,0.3 12.4,46.54 8.81,206.53 2.78,259.06 -184.59,5.73 -514.17,-28.16 -612.85,47.78 -137.14,105.55 -105.88,407.49 105.8,428.49 35.35,20.41 425.45,2.67 508.39,10.1 3.46,37.01 11.95,230.92 -7.68,248.92 -44.27,21.83 -400.63,10.82 -481.06,7.87 -294.29,-10.8 -469.09,-222.56 -463.34,-518.97 5.35,-276.01 192.74,-480.01 473.3,-483.57z"/>
   <path class="fil4" d="M4424.81 3287.37l-4.87 -1.12c60.81,2.57 124.19,3.43 185.07,3.01 103.98,-0.72 192.24,-107.84 194.34,-181.27 1.81,-63.19 -1.12,-130.27 -1.23,-193.96 -60.03,-5.73 -123.69,-4.74 -184.16,-3.8 -82.87,1.28 -75.91,14.8 -122.55,63.94 -81.55,85.89 -77.21,61.55 -66.59,313.19z"/>
  </g>
 </g>
</svg>
