<?xml version="1.0" encoding="UTF-8"?>
<!DOCTYPE svg PUBLIC "-//W3C//DTD SVG 1.1//EN" "http://www.w3.org/Graphics/SVG/1.1/DTD/svg11.dtd">
<!-- Creator: CorelDRAW 2017 -->
<svg xmlns="http://www.w3.org/2000/svg" xml:space="preserve" width="110.205mm" height="93.2838mm" version="1.1" style="shape-rendering:geometricPrecision; text-rendering:geometricPrecision; image-rendering:optimizeQuality; fill-rule:evenodd; clip-rule:evenodd"
viewBox="0 0 2185.76 1850.15"
 xmlns:xlink="http://www.w3.org/1999/xlink">
 <defs>
  <style type="text/css">
   <![CDATA[
    .fil0 {fill:#FEFEFE}
    .fil4 {fill:#020202}
    .fil2 {fill:#129789}
    .fil1 {fill:#252623}
    .fil3 {fill:white}
   ]]>
  </style>
 </defs>
 <g id="Katman_x0020_1">
  <metadata id="CorelCorpID_0Corel-Layer"/>
  <g id="_1868942422464">
   <path class="fil0" d="M1403.72 1726.86l-0.97 -176.14 23.46 -23.42 83.21 0.57 23.04 23.17 0.04 34.2c42.26,-60.68 124.04,-80.3 203.18,-42.7l14.29 -14.28 170.42 -0.7 8.7 8.66 8.04 -8.04 16.43 0c31.65,0 63.3,0 94.96,0 53.46,0 99.62,48.76 103.97,100.72 2.26,26.94 -5.96,58.24 -23.29,81.14 18.59,26.49 40.21,53.71 49.83,81.34l6.74 19.34 -23.72 33.38 -82.66 0 -17.41 -9.21 -5.54 -8.15c-4.03,-5.93 -7.97,-12 -11.87,-18.13l0.27 11.7 -23.56 23.92 -16.79 -0.13c-16.98,-0.13 -33.95,0 -50.93,0l-16.43 0 -9.34 -9.34 -9.81 9.74 -169.4 -1.92 -10.66 -10.84 -9.98 3.33c-84.01,28.05 -156.62,12.37 -195.19,-41.44l0.03 28.72 -23.01 23.23 -82.07 0.68 -6.83 -6.74 -5.43 5.28 -179.99 -1.46 -23.03 -23.31 0 -0.8c-14.26,11.71 -31.34,20.22 -49.36,25.23 -42.01,11.7 -87.31,4.59 -126,-14.55l-10.13 -5.01 -11.94 -19.2 -0.08 -72.88 26.15 -23.66 11.79 1.2c-1.78,-1.54 -3.5,-3.14 -5.14,-4.81 -47.7,-48.26 -37.84,-127.75 19.14,-163.01 24.19,-14.96 50.42,-20.67 78.63,-18.38 25.71,2.08 47.13,10.2 71.72,16.08l5.89 1.41 13.71 -13.62 80.58 0.2 23.15 23.15 0.05 16.37c0.14,53.03 -0.1,106.09 0.02,159.13l63.11 -0.03zm-190.64 -67.55l0.03 -6.33 -4.58 2.78c1.55,1.15 3.07,2.33 4.56,3.55zm513.02 58.2l0.28 -61.25 -14.07 6.97 -15.08 -4.61c-13.09,-4 -26.17,-9.27 -39.84,-10.96 -3.74,-0.46 -9.15,-0.82 -12.81,0.33 -8.39,2.63 -9.97,30.26 -10.13,36.33 -0.24,8.92 0.97,36.14 9.99,41.65 2.45,1.5 4.67,1.96 7.52,2.04 7.35,0.21 16.65,-2.17 23.8,-3.82 12.79,-2.96 25.21,-5.73 38.41,-6.22l11.94 -0.44zm-1213.03 -127.25c11.53,-18.43 27.19,-34.25 47.47,-45.88 27.39,-15.7 55.46,-22.63 86.97,-19.89 24.08,2.1 46.31,9.54 69.62,15.08l17.12 4.07 16.95 30.83 -25.55 74.06 -28.03 14.61 -15.2 -4.34c-13.98,-3.99 -27.56,-9.83 -42.21,-11.2 -3.38,-0.32 -7.87,-0.46 -11.16,0.53 -9.3,2.82 -10.27,32.9 -10.3,39.49 -0.03,8.56 1.13,33.43 10.49,38.26 11.09,5.73 50.78,-6.79 62.72,-8.92l17.89 -3.19 2.17 1.77 59.27 -173.08 20.27 -14.74 88.93 -1.51 21.08 14.73 93.97 270.8 -23.35 33.24 -86.76 1.04 -21.22 -15.33 -13.14 -41.35 -29.47 0.02 -12.3 41.02 -21.17 15.69 -85.7 -0.29 -4.44 -6.23c-61.5,17.17 -116.25,10.18 -154.48,-18.66l-18.36 24.86 -82.47 0.1 -17.72 -9.59 -19.57 -30.05 -0.02 16.95 -25.51 23.52 -82.13 -6.57 -21.05 -22.87 0.07 -25.63c-17.44,23.98 -41.94,42.5 -73.41,51.18 -88.92,24.52 -179.26,-16.06 -198.3,-110.11 -17.38,-85.84 8.98,-178.22 102.31,-203.12 57.6,-15.37 116.65,-6.83 158.28,38.6 4.19,4.58 8.08,9.41 11.66,14.46l0.08 -29.91 20.83 -22.67 15.34 -1.34c23.26,-2.04 46.71,-3.21 70.05,-2.17 41.85,1.85 89.69,11.16 117.72,45.28 4.82,5.86 8.72,12.04 11.8,18.47zm943.74 -1153.78c20.74,23.94 41.17,55.42 54.21,75.35 23.27,35.55 38.53,68.35 52.82,107.17l1.61 1.26 2.92 11.32 6.32 17.86 -1.33 1.86c35.73,144.59 43.15,258.15 -16.9,402.71 -104.39,251.32 -354.3,402.6 -626.43,368.62 -113.73,-14.2 -263.8,-78.56 -340.68,-164.61l-7.22 -8.08 -4.22 -21.25 3.59 -10.22c0.29,-0.84 0.59,-1.66 0.88,-2.46l-1.04 -1.65 3.09 -3.69c4.76,-11.6 9.94,-18.47 20.66,-24.67l21.66 -25.87 1.77 -1.86 0.94 -0.87c8.62,-7.94 16.86,-15.12 24.75,-23.87 18.37,-20.39 38.35,-39.06 58.44,-57.71l80.43 -79.48c1.69,-1.76 3.54,-3.57 5.42,-5.4 -46.35,-57.55 -84.91,-119.92 -110.6,-189.89 -34.58,-94.15 -41.94,-191.47 -28.21,-290.52 6.02,-43.4 15.89,-86.02 33.16,-126.4 4.73,-11.06 10,-21.66 15.28,-32.45 1.12,-2.29 3.21,-6.31 4.46,-9.53 -4.65,-7.03 -17.25,-19.14 -21.63,-23.35 -22.52,-21.67 -53.67,-45.05 -81.74,-59.11 -22.69,-11.37 -46.72,-18.85 -70.77,-26.69 -26.95,-8.8 -60.62,-19.44 -64.7,-52.75 -5.39,-44.08 49.06,-63.06 81.35,-75.37 102.51,-39.09 231.6,-53.05 340,-35.15 15.12,2.5 30.16,5.25 45.23,8.02 3.48,0.64 8.32,1.71 12.41,2.22 4.15,-2.33 8.54,-5.26 12.48,-7.51 14,-7.96 28.56,-14.9 43.33,-21.31 180.18,-78.16 375.03,-66.48 544.13,33.39 32.19,19.01 97.05,63.85 115.22,95.01l5.33 9.14 0.14 21.16 -5.2 9.21c-6.13,10.85 -17.45,22.85 -25.94,32.07 -12.23,13.26 -24.85,26.21 -37.53,39.03 -19.38,19.61 -39.09,39.33 -59.16,58.24l-86.5 85.83c-0.74,0.77 -1.49,1.53 -2.26,2.28z"/>
  </g>
  <g id="_1868942422176">
   <path class="fil1" d="M1346.13 265.84c-41.06,128.98 -298.69,195.62 -268.15,66.55 15.28,-64.57 133.99,-144.37 220.54,-135.19 38.96,4.13 59.5,31.31 47.61,68.64zm-498.92 721.59c16.93,2.55 52.79,-39.91 72.63,-59.58 58.68,-58.22 456.43,-467.69 486.58,-484.93 0.91,-19.93 10.48,-21.48 24.24,-36.4l87.34 -86.66c19.42,-18.28 106.03,-103.28 115.66,-120.33 -12.72,-21.8 -72.45,-63.91 -101.13,-80.85 -157.56,-93.06 -338.42,-104.79 -508.18,-31.15 -88.83,38.53 -31.47,38.54 -135.7,21.33 -102.43,-16.92 -224.69,-3.05 -319.4,33.07 -119.1,45.41 -24.06,41.31 57.74,82.28 32.9,16.48 68.79,44.16 91.47,65.99 76.49,73.61 5.68,44.32 -19.47,225.76 -29.14,210.23 49.48,356.35 148.21,471.47z"/>
   <path class="fil1" d="M630.3 1217.68c-9.07,4.02 -7.84,3.87 -11.36,13.91 66.78,74.75 205.32,137.86 316.01,151.68 262.01,32.72 490.35,-116.9 584.88,-344.47 60.39,-145.38 46.6,-255.94 10.56,-395.62 -21.74,-0.27 -39.34,23.32 -57.89,37.32l-267.35 192.49c-126.75,82.47 -322.98,216 -452.22,282.23 -33.26,17.04 -82.46,52.24 -122.63,62.46z"/>
   <path class="fil2" d="M847.2 987.44c-4.58,18.48 -5.73,15.5 -25.81,36.7l-81.29 80.32c-19.52,18.11 -38.65,35.9 -56.41,55.61 -10.8,12 -17.76,17.68 -27.35,26.5l-26.05 31.1c40.18,-10.23 89.37,-45.42 122.63,-62.46 129.25,-66.22 325.48,-199.75 452.22,-282.23l267.35 -192.49c18.55,-14 36.15,-37.59 57.89,-37.32 -15.78,-44.54 -28.82,-73.34 -52.56,-109.62 -18.52,-28.29 -52.06,-78.16 -71.41,-90.63 -30.15,17.24 -427.9,426.72 -486.58,484.93 -19.83,19.68 -55.69,62.13 -72.63,59.58z"/>
   <path class="fil3" d="M1346.13 265.84c11.88,-37.32 -8.65,-64.5 -47.61,-68.64 -86.55,-9.18 -205.26,70.62 -220.54,135.19 -30.54,129.07 227.09,62.43 268.15,-66.55z"/>
   <path class="fil4" d="M138.6 1608.04c96.46,-24.12 97.79,143.14 31.21,157.11 -95.99,20.14 -100.98,-139.66 -31.21,-157.11zm-94.72 116.77c12.72,62.83 72.62,100.77 148.88,79.74 121.76,-33.57 99.1,-283.19 -75.22,-236.67 -62.31,16.63 -89.55,78.42 -73.66,156.93z"/>
   <path class="fil4" d="M367.71 1610.57c82.61,-14.88 89.43,72.3 -0.12,61.8l0.12 -61.8zm-51.35 191.24l49.34 3.95 0.12 -91.58c6.91,-0.72 10.65,-2.06 16.51,-1.39 22.56,2.59 4.63,-0.43 12.66,4.8l57.69 88.57 52.42 -0.06c-6.88,-22.46 -50.03,-74.13 -65.39,-102.02 2.64,-2.8 2.11,-2.37 6.82,-6.03l19.04 -14.26c5.76,-6.2 11.25,-15.87 14.06,-27.37 23.82,-97.44 -97.43,-93.94 -162.66,-88.22l-0.61 233.6z"/>
   <path class="fil4" d="M2004.81 1610.28c85.69,-12.78 87.08,72.84 -0.02,62.1l0.02 -62.1zm-51.26 194.16c18.72,0 32.56,-0.15 51.24,0 -0.55,-24.07 0,-62.42 0.29,-89.84 18.62,-2.02 23.88,1.06 26.95,3.16 18.76,24.49 36.96,56.93 57.19,86.69l52.33 0c-8.93,-25.63 -48.6,-73.76 -64.93,-102.89 20.91,-5.75 38.95,-37.98 36.32,-69.33 -2.72,-32.45 -32.71,-64.37 -64.45,-64.37 -29.21,0 -61.66,0 -94.96,0l0 236.58z"/>
   <path class="fil4" d="M837.23 1613.26c0.39,-1.89 1.57,-2.08 1.27,-2.64l27.23 96.29 -58.62 -0.73 30.13 -92.92zm-45.17 136.46l88.01 -0.05 17.96 56.55 53.36 -0.64 -83.09 -239.46 -63.55 1.07 -81.85 239 52.16 0.18 17 -56.65z"/>
   <polygon class="fil4" points="1765.37,1803.1 1901.81,1804.65 1901.67,1766.58 1815.95,1766.58 1816.18,1701.55 1896.51,1701.53 1896.49,1663.85 1815.95,1662.89 1816,1608.82 1904.14,1608.75 1904.08,1567.3 1766.46,1567.87 "/>
   <path class="fil4" d="M1207.96 1578.83c-38.26,-9.16 -78.58,-28.33 -120.25,-2.55 -32.19,19.91 -44.12,68.68 -11.8,101.39 21.98,22.24 83.62,37.43 84.2,64.18 1.13,51.65 -87.61,10.37 -105.52,8.56l0.05 43.95c98.42,48.67 192.37,-21.53 143.47,-93.67 -17.39,-25.66 -77.24,-40.51 -87.22,-58.37 -12.48,-22.32 6.3,-35.77 25.92,-36.25 21.83,-0.53 37.38,9.05 57.43,11.95l13.72 -39.19z"/>
   <path class="fil4" d="M1723.56 1580.81c-90.06,-46.18 -176.73,0.37 -180.51,98.36 -4.22,109.36 66.49,153.63 172.32,118.29l0.27 -39.86c-30.49,1.14 -61.79,20.61 -91.89,2.21 -21.68,-13.25 -29.84,-43.3 -28.96,-76.55 2.87,-107.67 84.1,-71.72 114.04,-62.57l14.74 -39.89z"/>
   <path class="fil4" d="M707.96 1578.18c-45.14,-10.72 -79.6,-26.95 -127.69,0.62 -30.67,17.58 -50.8,52.13 -52.87,100.4 -4.74,110.4 67.99,153.42 172.71,118.21l-1.2 -41.37c-25.52,4.55 -60.42,19.3 -87.88,5.11 -23.63,-12.21 -32.07,-40.82 -31.94,-73.66 0.44,-114.48 87.59,-74.42 114.22,-66.82l14.66 -42.5z"/>
   <path class="fil3" d="M138.6 1608.04c-69.77,17.45 -64.78,177.25 31.21,157.11 66.58,-13.97 65.25,-181.23 -31.21,-157.11z"/>
   <path class="fil4" d="M1252.15 1803.81l147.31 1.2 0.76 -38.48 -99.12 0.05c-0.18,-28.35 -0.07,-156.55 -0.18,-198.71l-47.8 -0.12 -0.97 236.06z"/>
   <polygon class="fil4" points="1443.83,1806.47 1493.09,1806.06 1492.8,1567.43 1442.51,1567.08 "/>
   <path class="fil3" d="M2004.79 1672.37c87.1,10.74 85.71,-74.88 0.02,-62.1l-0.02 62.1z"/>
   <path class="fil3" d="M367.6 1672.37c89.54,10.5 82.73,-76.68 0.12,-61.8l-0.12 61.8z"/>
   <path class="fil3" d="M807.11 1706.18l58.62 0.73 -27.23 -96.29c0.3,0.56 -0.88,0.75 -1.27,2.64l-30.13 92.92z"/>
  </g>
 </g>
</svg>
