<?xml version="1.0" encoding="UTF-8"?>
<!DOCTYPE svg PUBLIC "-//W3C//DTD SVG 1.1//EN" "http://www.w3.org/Graphics/SVG/1.1/DTD/svg11.dtd">
<!-- Creator: CorelDRAW 2017 -->
<svg xmlns="http://www.w3.org/2000/svg" xml:space="preserve" width="115.53mm" height="90.8212mm" version="1.1" style="shape-rendering:geometricPrecision; text-rendering:geometricPrecision; image-rendering:optimizeQuality; fill-rule:evenodd; clip-rule:evenodd"
viewBox="0 0 30215.92 23753.56"
 xmlns:xlink="http://www.w3.org/1999/xlink">
 <defs>
  <style type="text/css">
   <![CDATA[
    .fil0 {fill:#FEFEFE}
    .fil3 {fill:black}
    .fil4 {fill:#020202}
    .fil1 {fill:#313131}
    .fil2 {fill:#EE6B23}
    .fil5 {fill:white}
   ]]>
  </style>
 </defs>
 <g id="Katman_x0020_1">
  <metadata id="CorelCorpID_0Corel-Layer"/>
  <g id="_1868942420768">
   <path class="fil0" d="M20538.16 22164.22l-10.72 -1939.39c-0.78,-145.18 50.71,-270.41 153.45,-373.01 102.73,-102.58 228.04,-153.94 373.22,-152.95l621.69 4.26c286.62,1.99 519.16,235.83 519.5,522.46l0.16 121.38c541.99,-693.87 1521.49,-909.8 2472.72,-467.32 95.31,-104.56 232.33,-170.47 384.39,-171.1l1701.15 -6.98c118.22,-0.47 223.07,33.69 313.38,102 85.05,-59.92 188.65,-95.15 300.22,-95.15 391.24,0 782.48,0 1173.72,0 677.92,0 1262.59,615.75 1317.83,1274.99 28.01,334.22 -71.01,718.98 -280.35,1006.39 227.72,323.29 488.27,654.06 606.7,993.91 57.51,165.06 33.71,332.6 -67.53,475.09 -101.24,142.49 -251.6,220.11 -426.42,220.11l-646.87 0c-178.58,0 -332.13,-81.29 -432.54,-228.95 -35.41,-52.05 -70.2,-104.96 -104.64,-158.39 -22.34,86.1 -67.09,163.54 -133.91,231.36 -103.07,104.64 -229.9,157.13 -376.78,155.96 -209.76,-1.65 -419.46,0.03 -629.22,0.03 -119.21,0 -229.32,-40.23 -317.46,-107.78 -93.76,74.75 -203.69,111.78 -327.97,110.37l-1686.5 -19.14c-134.93,-1.54 -257.62,-54.43 -349.63,-139.85 -30.18,17.18 -62.53,31.65 -96.82,43.1 -1011.3,337.7 -1892.57,167.02 -2390.21,-446.14l0.08 55.66c0.34,286.78 -231.94,521.28 -518.69,523.69l-608.84 5.1c-109.77,0.94 -208.14,-28.06 -294.16,-86.57 -77.55,44.31 -167.39,69.33 -262.85,68.55l-1820.86 -14.78c-208.29,-1.7 -387.84,-125.88 -470.44,-303.52 -178.82,145.71 -392.37,251.81 -617.71,314.56 -527.03,146.73 -1095.36,58.06 -1580.84,-182.01 -182.56,-90.28 -290.99,-264.65 -291.2,-468.34l-0.58 -543.2c-0.16,-153.42 58.4,-285.53 172.17,-388.47 76.21,-68.94 163.02,-111.94 257.91,-128.13 -5.2,-5.07 -10.38,-10.2 -15.48,-15.35 -604.42,-611.56 -479.48,-1619.02 242.61,-2065.79 304.93,-188.65 636.1,-260.81 991.82,-231.99 320.34,25.97 585.46,126.32 891.57,199.58 18.44,4.42 36.35,9.62 53.75,15.61 95.91,-102.94 232.64,-167.31 383.87,-166.94l590.9 1.44c287.15,0.71 521.02,234.5 521.8,521.67 1.75,644.65 -1.1,1289.56 0.13,1934.26l703.89 -0.37c3.53,0 7.06,0.03 10.59,0.08zm3985.01 -102.52l3.16 -687.23c-104.51,39.28 -222.23,45.43 -336.89,10.36 -159.51,-48.78 -320.49,-113.72 -486.91,-134.33 -40.75,-5.05 -104.59,-9.76 -144.61,2.77 -78.17,24.48 -100.72,363.52 -102.18,418.6 -2.51,94.65 12.14,427.46 107.78,485.92 25.24,15.43 47.39,19.62 76.79,20.43 87.3,2.46 200.92,-26.81 285.87,-46.42 160.33,-37.01 315.55,-71.53 480.98,-77.7 40.07,-1.49 78.78,1.05 116.02,7.61zm-12456.64 -1288.23l298.13 -788.71c78.44,-207.51 267.48,-338.15 489.29,-338.15l669 0c222.47,0 412.03,131.5 489.95,339.87l1109.83 2968.19c61.96,165.69 40.67,336.03 -60.15,481.37 -100.8,145.31 -252.94,224.93 -429.79,224.93l-677.66 0c-227.93,0 -421.76,-138.77 -495.2,-354.57l-104.04 -305.79 -364.46 0 -108.88 310.42c-74.91,213.47 -267.37,349.94 -493.61,349.94l-656.92 0c-134.17,0 -254.11,-45.82 -348.19,-131.35 -86,41.53 -175.7,75.79 -267.53,103.65 -221.68,67.24 -454.87,93.4 -686,93.4 -204.6,0 -408.21,-25.97 -606.31,-77.15 -211.43,-54.66 -410.65,-143.82 -586.93,-273.44 -97.82,-71.92 -184.91,-154.23 -260.81,-246.03 -50.29,62.27 -106.81,121.17 -170.05,176.15 -356.48,309.87 -811.43,422.21 -1274.94,422.21 -435.55,0 -866.65,-96.09 -1211.46,-367.6 -2.01,4.26 -4.08,8.53 -6.2,12.79 -90.83,181.61 -264.81,289.11 -467.85,289.11l-653.44 0c-224.12,0 -414.99,-133.67 -491.59,-344.29 -56.07,-154.23 -85.13,-317.67 -96.04,-481.11 -7.43,-111.36 -17.81,-222.81 -33.79,-333.31 -0.05,-0.42 -0.13,-0.84 -0.18,-1.26l-106.89 0 0 638.61c0,288.11 -234.97,523.08 -523.08,523.08l-653.46 0c-288.11,0 -523.08,-234.97 -523.08,-523.08l0 -782.27c-72.79,45.64 -149.79,84.82 -229.61,117.82 -212.53,87.85 -444.62,120.91 -673.5,120.91l-161.48 0 0 540.08c0,288.11 -234.97,523.08 -523.08,523.08l-653.44 0c-288.11,0 -523.08,-234.97 -523.08,-523.08l0 -2968.19c0,-288.11 234.97,-523.08 523.08,-523.08l1338 0c228.9,0 460.97,33.09 673.5,120.94 102.89,42.53 201.15,95.23 291.75,158.76 88.4,-164.2 261.99,-276.24 460.94,-276.24l1602.52 0c190.53,0 378.01,30.47 555.2,101.92 125.72,50.71 242.89,117.75 348.01,201.75 82.46,-180.88 265.1,-307.13 476.29,-307.13l653.46 0c288.11,0 523.08,234.97 523.08,523.08l0 1847.98c0,38.66 2.62,77.39 7.98,115.71 26.55,3.71 59.68,4.29 79.17,4.29 19.98,0 53.85,-0.65 84.63,-3.84 6.22,-41.25 7.69,-91.98 7.69,-117.88l0 -1846.25c0,-288.11 234.97,-523.08 523.08,-523.08l651.74 0c200.92,0 375.99,114.27 463.56,281.13 17.78,-13.86 35.94,-27.3 54.48,-40.38 158.55,-111.76 334.64,-192.08 521.59,-243.05 175.26,-47.81 355.28,-72.03 536.95,-72.03 191.58,0 382.24,21.52 568.54,66.43 200.76,48.36 389.38,129.31 558.6,248.26 177.46,124.76 319.81,284.98 423.36,475.69 70.25,129.38 115.08,267.95 139.32,410.8zm7606.14 -15898.85c2.17,1.31 4.37,2.62 6.54,3.95 586.9,359.04 1382.04,1699.87 1676.8,2339.75 771.68,1675.39 919.84,3516.2 413.89,5290.52 -367.1,1287.41 -1058.7,2463.54 -1980.13,3432.24 -1364.6,1434.64 -3514.65,2312.48 -5486.18,2313.16 -1030,0.37 -2324.77,-212.22 -3244.98,-671.38 -712.91,-355.75 -1897.88,-1016.38 -2350.63,-1662.54 -95.93,-136.89 -120.73,-295.15 -71.32,-454.85 84.01,-271.4 216.58,-378.79 402.12,-562.42 106.63,-105.53 212.5,-211.88 318.06,-318.48 214.49,-216.61 433.17,-428.85 649.17,-643.92 180.7,-179.91 359.7,-361.61 538.83,-543.14 -14.23,-8.5 -28.25,-17.71 -41.98,-27.64 -603.74,-437.01 -1341.34,-1628.18 -1646.85,-2316.53 -1346.34,-3033.76 -735.22,-6435.92 1624.1,-8777.17 2321.92,-2304.13 5652.89,-2898.75 8649.19,-1601.47 633.77,274.41 2071.33,1137.52 2403.28,1723.72 84.43,149.08 92.38,313.98 22.7,470.51 -62.85,141.18 -232.22,312.86 -338.83,427.07 -192.26,206.04 -389.33,408.37 -586.38,609.86 -317.36,324.55 -636.85,647.19 -957.4,968.75z"/>
  </g>
  <g id="_1868942419488">
   <g>
    <path class="fil1" d="M10809.56 12946.15c179.42,-87.77 1061.21,-1032.33 1299.5,-1267.17l3860.28 -3863c352.82,-354.34 5005.47,-4929.36 5108.07,-5159.81 -234.05,-413.31 -1529.65,-1230.27 -2155.94,-1501.43 -6166.09,-2669.69 -12305.55,3561.44 -9587.34,9686.42 281.39,634.06 979.74,1746.19 1475.44,2104.99z"/>
    <path class="fil2" d="M9136.34 15620.15c377.88,539.3 1518.23,1176.52 2155.81,1494.66 780.23,389.33 1981.05,616.72 3011.24,616.35 2060.64,-0.71 4003.24,-989.78 5107.37,-2150.58 2027.94,-2132.01 2800.93,-5254.27 1470.13,-8143.42 -257.72,-559.6 -1017.14,-1832.49 -1474.65,-2112.4 -205.7,76.34 -7171.72,7141.72 -7745.51,7698.07 -423.28,410.44 -849.54,854.27 -1285.66,1288.51 -224.17,223.17 -416.58,409.08 -646.53,641.27 -97.42,98.42 -213.92,215.46 -321.8,322.22 -105.53,104.46 -221.19,186.37 -270.38,345.31z"/>
   </g>
   <g>
    <g>
     <path class="fil3" d="M1174.79 22074.72l686.29 0c184.99,0 344.03,-27.64 473.68,-81.23 129.65,-53.59 236.83,-126.19 318.09,-214.36 81.23,-88.17 141.76,-190.17 178.06,-305.98 38.03,-114.08 55.32,-231.65 55.32,-350.94 0,-122.74 -19.01,-240.28 -55.32,-352.64 -38.05,-114.11 -96.82,-214.36 -178.06,-304.28 -81.26,-88.14 -188.44,-160.74 -318.09,-214.33 -129.65,-53.59 -288.69,-81.26 -473.68,-81.26l-1338 0 0 2968.19 653.44 0 0 -1063.17 -1.73 0zm0 -1396.79l506.5 0c74.36,0 146.96,5.2 216.09,17.29 69.15,10.38 129.67,32.85 183.26,63.97 51.86,31.12 95.07,77.78 126.19,134.82 31.12,58.79 48.41,134.85 48.41,228.2 0,95.1 -15.56,171.15 -48.41,228.2 -31.12,58.77 -74.33,103.73 -126.19,134.82 -51.86,31.12 -114.11,53.59 -183.26,63.97 -69.13,10.38 -141.73,17.29 -216.09,17.29l-506.5 0 0 -888.56z"/>
     <path class="fil3" d="M3940.73 21979.65l653.44 0c164.25,0 281.79,36.3 352.66,108.91 72.6,72.6 119.29,184.99 141.76,340.55 17.29,119.29 29.4,243.76 38.03,373.4 8.66,129.67 31.12,242.03 65.7,337.1l653.44 0c-31.1,-41.48 -53.59,-91.62 -69.13,-152.11 -15.56,-58.79 -25.94,-122.74 -32.85,-188.44 -6.93,-65.7 -12.11,-131.37 -13.84,-195.35 -3.45,-63.97 -5.18,-119.29 -8.63,-165.95 -5.2,-74.33 -15.56,-150.41 -31.12,-224.74 -15.56,-74.33 -39.75,-143.48 -72.6,-205.7 -32.85,-62.25 -76.06,-115.84 -129.65,-162.5 -51.86,-44.96 -119.29,-79.53 -198.82,-102l0 -8.66c165.97,-65.67 285.24,-164.22 359.57,-290.42 72.63,-127.92 110.66,-278.31 110.66,-452.91 0,-114.08 -20.77,-219.54 -60.52,-318.09 -39.75,-98.52 -98.52,-184.96 -174.58,-259.29 -76.08,-74.36 -167.7,-133.12 -274.88,-176.33 -107.18,-43.23 -226.47,-63.97 -359.57,-63.97l-1602.52 0 0 2968.19 653.46 0 0 -1161.69zm0 -1301.72l715.68 0c150.39,0 261.02,32.85 337.1,98.55 74.33,65.7 112.36,169.4 112.36,314.61 0,150.41 -38.03,257.59 -112.36,325.02 -74.33,65.67 -186.71,100.25 -337.1,100.25l-715.68 0 0 -838.43z"/>
     <path class="fil3" d="M7531.26 23205.31c395.87,0 707.03,-98.55 931.77,-293.89 224.72,-195.35 337.1,-494.39 337.1,-895.47l0 -1846.25 -651.74 0 0 1846.25c0,221.29 -44.93,383.79 -133.1,489.24 -88.17,103.7 -248.94,155.57 -482.31,155.57 -133.1,0 -238.55,-19.01 -318.09,-55.32 -79.51,-38.03 -140.03,-86.44 -184.96,-145.21 -44.96,-58.77 -74.33,-127.92 -86.44,-205.7 -13.84,-77.81 -20.74,-157.32 -20.74,-236.85l0 -1847.98 -653.46 0 0 1846.25c0,404.53 110.63,703.6 330.2,897.19 219.54,195.35 530.69,292.17 931.77,292.17z"/>
     <path class="fil3" d="M10827.89 22631.39c-58.77,27.64 -120.99,46.66 -186.69,55.32 -65.7,10.36 -129.65,13.81 -186.69,13.81 -86.44,0 -169.43,-10.36 -248.94,-31.1 -81.26,-20.77 -150.41,-51.86 -209.18,-95.1 -58.77,-43.21 -107.18,-98.52 -143.48,-167.67 -36.3,-69.15 -53.59,-153.87 -53.59,-254.11l-632.72 0c-3.45,183.24 31.12,340.55 100.28,473.65 69.15,133.12 162.5,242.03 280.06,328.47 117.54,86.44 254.11,148.66 407.95,188.41 153.87,39.78 312.91,60.52 475.4,60.52 202.25,0 380.31,-24.22 534.17,-70.88 153.87,-46.69 283.51,-112.38 387.24,-197.07 103.7,-84.71 181.51,-184.99 235.1,-300.8 51.86,-115.84 79.51,-242.03 79.51,-378.58 0,-165.97 -34.58,-302.53 -105.45,-409.71 -70.88,-107.18 -153.84,-191.89 -250.66,-255.87 -96.8,-63.95 -195.35,-110.63 -293.87,-140 -98.55,-29.4 -174.61,-48.41 -231.65,-60.52 -184.99,-46.66 -335.38,-86.44 -451.19,-115.81 -114.11,-31.12 -205.73,-60.52 -269.68,-91.62 -65.7,-31.12 -108.93,-63.97 -131.4,-100.28 -22.47,-36.3 -32.85,-82.99 -32.85,-141.76 0,-63.95 13.84,-115.81 41.51,-157.32 27.64,-41.48 62.22,-76.06 105.43,-103.73 43.23,-27.64 89.89,-46.66 143.48,-58.77 51.86,-10.38 105.45,-17.29 157.32,-17.29 81.26,0 153.87,6.9 223.02,20.74 67.43,13.84 127.92,38.03 181.51,70.88 51.86,32.85 95.07,79.53 126.19,136.58 31.12,58.77 50.14,131.37 55.32,219.54l632.72 0c0,-171.13 -32.85,-318.09 -98.55,-439.08 -65.7,-121.02 -153.84,-219.56 -264.5,-297.35 -110.63,-77.78 -236.83,-133.1 -380.31,-167.67 -143.48,-34.58 -292.14,-51.86 -446.01,-51.86 -133.1,0 -266.22,17.29 -399.32,53.59 -133.12,36.3 -252.39,91.62 -357.84,165.95 -105.45,74.33 -190.17,167.67 -255.87,280.06 -65.67,112.36 -98.52,243.73 -98.52,397.6 0,136.58 25.92,252.39 77.78,347.46 51.86,95.1 117.56,174.61 202.28,238.58 82.96,63.95 178.03,115.81 283.49,155.57 105.45,39.78 212.63,74.36 325.02,102 108.91,31.12 214.36,58.79 319.79,82.99 105.45,24.19 198.82,53.59 283.51,88.17 82.99,32.85 150.41,74.33 202.28,124.47 51.86,50.11 76.06,115.81 76.06,195.35 0,74.33 -19.01,136.55 -58.77,184.96 -41.51,53.59 -89.89,91.62 -148.69,119.29z"/>
     <path class="fil3" d="M12620.58 22477.52l1109.83 0 224.72 660.37 677.66 0 -1109.83 -2968.19 -669 0 -1121.94 2968.19 656.92 0 231.65 -660.37zm556.64 -1574.85l8.63 0 373.4 1089.09 -769.27 0 387.24 -1089.09z"/>
    </g>
    <g>
     <path class="fil4" d="M28000.92 20755.84c1059.19,-157.97 1076.3,900.36 -0.24,767.55l0.24 -767.55zm-633.61 2399.99c231.44,0 402.46,-1.83 633.38,0 -6.8,-297.56 0,-771.55 3.64,-1110.53 230.13,-25 295.18,13.05 333.13,39 231.94,302.68 456.84,703.73 706.95,1071.54l646.87 0c-110.4,-316.81 -600.68,-911.71 -802.62,-1271.77 258.51,-71.06 481.42,-469.42 448.96,-856.97 -33.63,-401.07 -404.34,-795.58 -796.58,-795.58 -361.11,0 -762.13,0 -1173.72,0l0 2924.33z"/>
     <polygon class="fil4" points="25041.31,23139.3 26727.81,23158.45 26726.06,22687.88 25666.55,22687.88 25669.33,21884.06 26662.24,21883.74 26662.01,21417.99 25666.55,21406.14 25667.13,20737.8 26756.58,20736.91 26755.85,20224.65 25054.7,20231.63 "/>
     <path class="fil4" d="M18151.49 20367.19c-472.89,-113.17 -971.26,-350.2 -1486.42,-31.49 -397.86,246.16 -545.37,848.97 -145.78,1253.26 271.66,274.88 1033.56,462.67 1040.78,793.36 13.91,638.37 -1082.94,128.21 -1304.34,105.74l0.58 543.2c1216.54,601.6 2377.78,-266.15 1773.44,-1157.79 -215.01,-317.2 -954.71,-500.77 -1078.15,-721.46 -154.28,-275.85 77.89,-442.16 320.34,-448.02 269.86,-6.54 461.99,111.91 709.9,147.67l169.66 -484.45z"/>
     <path class="fil4" d="M24524.53 20391.57c-1113.15,-570.87 -2184.48,4.55 -2231.21,1215.75 -52.18,1351.73 821.87,1898.95 2129.92,1462.15l3.4 -492.67c-376.93,14.04 -763.73,254.79 -1135.9,27.3 -267.92,-163.75 -368.85,-535.25 -357.89,-946.15 35.41,-1330.91 1039.58,-886.47 1409.55,-773.35l182.14 -493.03z"/>
     <path class="fil4" d="M18697.64 23148.06l1820.86 14.78 9.36 -475.61 -1225.17 0.65c-2.22,-350.44 -0.81,-1935.02 -2.22,-2456.22l-590.9 -1.44 -11.93 2917.84z"/>
     <polygon class="fil4" points="21066.87,23180.86 21675.71,23175.76 21672.21,20226.22 21050.52,20221.96 "/>
     <path class="fil5" d="M28000.69 21523.39c1076.53,132.81 1059.43,-925.52 0.24,-767.55l-0.24 767.55z"/>
    </g>
   </g>
  </g>
 </g>
</svg>
